<svg version="1.1" xmlns="http://www.w3.org/2000/svg" xmlns:xlink="http://www.w3.org/1999/xlink" width="700" height="700" viewBox="62,176.40002,700,700"><defs><clipPath id="clip-1"><rect x="62" y="176.40002" width="700" height="700" id="clip-1" fill="none" stroke="none" stroke-width="1" stroke-linecap="butt" stroke-linejoin="miter"/></clipPath></defs><g fill="none" fill-rule="nonzero" stroke="none" stroke-width="none" stroke-linecap="none" stroke-linejoin="none" stroke-miterlimit="10" stroke-dasharray="" stroke-dashoffset="0" font-family="none" font-weight="none" font-size="none" text-anchor="none" style="mix-blend-mode: normal"><g><g clip-path="url(#clip-1)" id="Group 1"><g id="Group 1" fill="#ffffff" stroke="#000000" stroke-width="0" stroke-linecap="butt" stroke-linejoin="miter"><rect x="-955" y="103.85716" transform="scale(1,1.4)" width="700" height="500" id="Shape 1"/></g><g id="Group 1" stroke-width="1"><g id="Group 1"><g id="Group 1"><path d="M136,569.90002c0,-125.36864 143.57095,-218 277.5,-218c133.92905,0 271.4977,104.63135 271.4977,229.99999c0,125.36864 -144.56865,203.00001 -278.4977,203.00001c-133.92905,0 -270.5,-89.63136 -270.5,-215z" id="Path 1" fill="#3b444b" stroke="#000000" stroke-linecap="round" stroke-linejoin="round"/><g id="Group 1" stroke="none" stroke-linecap="butt" stroke-linejoin="miter"><g id="Group 1"><path d="M415.01912,241.00578c0.29689,0 0.29689,0 0.59908,0c6.43614,0.00253 12.84577,0.09374 19.266,0.55483c0.23062,0.0152 0.45859,0.0304 0.69716,0.04814c23.76441,1.6518 47.20277,5.95865 101.35858,25.28625c0.3128,0.13934 0.62559,0.28121 0.94898,0.42815c4.01331,1.81141 7.963,3.70642 11.84377,5.77371c0.76608,0.40535 1.54011,0.8031 2.31415,1.19831c3.41953,1.74807 6.77279,3.57215 10.07568,5.52036c0.24388,0.14441 0.4904,0.28881 0.74487,0.43575c8.90403,5.23408 17.52178,10.89632 25.76311,17.04498c0.1511,0.11147 0.30219,0.22547 0.45859,0.33948c2.82575,2.10529 5.60379,4.25871 8.33146,6.48053c0.89862,0.7271 1.80519,1.43899 2.72502,2.14076c1.50831,1.17298 2.91853,2.43717 4.33406,3.70895c0.62029,0.55483 1.24852,1.09951 1.89532,1.629c3.57063,2.95652 6.89738,6.17146 10.23208,9.36612c0.6574,0.63082 1.31479,1.25912 1.97484,1.88741c0.63884,0.60802 1.27769,1.21859 1.91653,1.82914c0.3499,0.33441 0.3499,0.33441 0.70511,0.6739c1.15575,1.10965 2.27968,2.23449 3.34531,3.42521c0.67065,0.7423 1.38106,1.45166 2.08618,2.16609c1.25383,1.27685 2.43873,2.58664 3.58388,3.9547c0.56462,0.65869 1.15045,1.28952 1.75218,1.92035c1.24587,1.30979 2.41223,2.67531 3.57858,4.0535c0.27303,0.31922 0.54872,0.64096 0.82175,0.96017c1.66205,1.94315 3.29759,3.89896 4.88277,5.89785c0.45859,0.57002 0.91718,1.13751 1.37841,1.70754c2.04907,2.53851 4.01861,5.10995 5.89007,7.77765c0.58317,0.83097 1.19551,1.64167 1.8158,2.44984c1.25118,1.63407 2.41223,3.32387 3.56798,5.02128c0.22267,0.32681 0.44799,0.65616 0.67065,0.98551c0.63884,0.93737 1.27769,1.87475 1.91387,2.81465c0.23327,0.34455 0.23327,0.34455 0.47184,0.6967c12.6125,18.67398 22.79421,38.90602 50.88738,153.98494c0.02386,0.34455 0.02386,0.34455 0.04771,0.69416c0.10603,1.57833 0.19881,3.15667 0.28363,4.73753c0.01326,0.22801 0.02386,0.45349 0.03711,0.6891c0.29159,5.30502 0.27568,10.61764 0.27568,15.92773c0,1.03111 0.00265,2.06222 0.0053,3.09079c0.03446,9.71067 -0.25183,19.39601 -1.08152,29.07628c-0.03446,0.40788 -0.03446,0.40788 -0.06892,0.82337c-1.08152,12.95347 -2.85226,25.81321 -5.52956,38.5564c-0.04506,0.21788 -0.09013,0.43575 -0.13784,0.65869c-3.76943,18.09129 -9.46865,35.70375 -17.35743,52.54352c-0.1723,0.36735 -0.1723,0.36735 -0.34725,0.73977c-6.00141,12.7964 -13.35207,24.86824 -21.91945,36.24844c-0.14579,0.19254 -0.29159,0.38762 -0.44268,0.58522c-2.08883,2.77412 -4.27309,5.44943 -6.57398,8.069c-0.56727,0.65109 -1.12394,1.30979 -1.6806,1.97102c-0.94633,1.10458 -1.93243,2.17116 -2.93973,3.2276c-0.4851,0.51175 -0.96224,1.02858 -1.43408,1.553c-2.63224,2.87546 -5.41823,5.59637 -8.24664,8.29448c-0.62294,0.59282 -1.24322,1.18565 -1.86086,1.78101c-0.40292,0.38255 -0.80319,0.7651 -1.20612,1.14765c-0.18025,0.17481 -0.36316,0.34961 -0.55137,0.52949c-1.04442,0.99564 -2.11799,1.94568 -3.23662,2.86785c-0.58848,0.48389 -1.16105,0.98297 -1.73097,1.48206c-1.1478,0.98804 -2.32475,1.92542 -3.52556,2.85265c-0.66535,0.51935 -1.31744,1.04885 -1.96954,1.5834c-2.00135,1.64167 -4.07958,3.1744 -6.18431,4.6894c-0.53811,0.38762 -1.07357,0.77776 -1.60903,1.16792c-4.45864,3.23773 -9.07368,6.24999 -13.80006,9.12038c-0.21736,0.13174 -0.43208,0.26348 -0.65475,0.39775c-6.1419,3.72416 -12.47731,7.09869 -18.96116,10.24269c-0.19351,0.09374 -0.38437,0.18747 -0.58317,0.28375c-1.0126,0.49402 -2.02786,0.97791 -3.04842,1.45673c-0.44799,0.21027 -0.89597,0.42055 -1.34396,0.63336c-11.36397,5.37849 -23.2263,9.7208 -35.29803,13.41709c-0.53546,0.16467 -1.07357,0.33188 -1.60903,0.49909c-23.8996,7.44071 -48.87277,11.72729 -90.69177,15.67945c-0.43738,0.02787 -0.43738,0.02787 -0.88272,0.05827c-2.25583,0.15454 -4.51166,0.28375 -6.77014,0.40028c-0.31545,0.0152 -0.31545,0.0152 -0.63619,0.03294c-9.48986,0.49149 -18.97176,0.56496 -28.46958,0.55229c-0.76608,0 -1.52951,0 -2.29294,0c-10.72778,-0.00507 -21.43966,-0.05574 -32.14623,-0.7803c-0.89597,-0.0608 -1.79194,-0.11654 -2.68791,-0.17481c-27.60276,-1.75061 -55.00407,-5.77624 -91.48965,-15.59078c-0.29954,-0.0912 -0.29954,-0.0912 -0.60438,-0.18494c-8.58593,-2.62211 -17.10295,-5.50516 -25.37344,-8.93544c-0.53016,-0.21788 -1.06032,-0.43322 -1.58783,-0.65109c-4.3049,-1.77341 -8.52232,-3.70895 -12.72648,-5.6825c-0.22002,-0.10387 -0.43738,-0.20521 -0.6627,-0.31161c-1.19816,-0.55989 -2.39102,-1.13498 -3.57858,-1.71514c-0.20146,-0.0988 -0.40292,-0.19761 -0.61234,-0.29641c-3.85691,-1.87981 -7.60514,-3.91163 -11.31626,-6.03718c-0.28098,-0.15961 -0.55932,-0.31922 -0.84826,-0.48389c-9.66481,-5.5533 -18.89224,-11.82103 -27.51529,-18.77025c-0.24918,-0.20014 -0.24918,-0.20014 -0.50365,-0.40535c-2.02786,-1.63407 -4.00801,-3.31374 -5.95104,-5.03901c-0.31545,-0.27614 -0.63354,-0.54469 -0.95429,-0.81324c-2.19486,-1.84688 -4.24658,-3.83056 -6.3089,-5.80664c-0.64679,-0.62069 -1.29359,-1.23632 -1.94304,-1.85448c-0.41617,-0.40028 -0.83235,-0.79803 -1.25118,-1.19578c-0.19086,-0.18241 -0.38172,-0.36482 -0.57787,-0.55229c-1.06032,-1.01844 -2.07558,-2.05969 -3.05637,-3.14906c-0.54872,-0.60802 -1.11864,-1.19578 -1.68856,-1.78354c-1.06562,-1.11978 -2.08088,-2.26236 -3.07493,-3.44041c-0.4957,-0.58776 -1.002,-1.17298 -1.51361,-1.75314c-2.1551,-2.4625 -4.18296,-4.99848 -6.1525,-7.60032c-0.38172,-0.49909 -0.76873,-0.99564 -1.15575,-1.48966c-2.27173,-2.89826 -4.35526,-5.91811 -6.42553,-8.94557c-0.14579,-0.21027 -0.28894,-0.42055 -0.43738,-0.63843c-13.55353,-19.92043 -23.0752,-42.31856 -32.96268,-80.68496c-0.04506,-0.20774 -0.08748,-0.41295 -0.13254,-0.62576c-1.60108,-7.60285 -2.81515,-15.2437 -3.84366,-22.93522c-0.04241,-0.31668 -0.04241,-0.31668 -0.08748,-0.63843c-0.95959,-7.19243 -1.52951,-14.42287 -2.03316,-21.65583c-0.01856,-0.23308 -0.03446,-0.46615 -0.05036,-0.70429c-0.53016,-7.45084 -0.53546,-14.90929 -0.54607,-22.3728c0,-0.77016 -0.00265,-1.5378 -0.0053,-2.30797c-0.02386,-9.33066 0.28098,-18.64104 1.08152,-27.94383c0.02121,-0.26601 0.04506,-0.52949 0.06627,-0.80057c1.74157,-20.54112 5.28039,-40.97584 10.85237,-60.88867c0.05301,-0.19761 0.10868,-0.39268 0.167,-0.59536c6.31951,-22.4944 15.05919,-44.7912 28.32643,-68.12417c0.38702,-0.67643 0.77138,-1.35792 1.15045,-2.03942c1.9934,-3.56455 4.16441,-7.01003 6.38047,-10.45297c0.37907,-0.59029 0.75283,-1.18565 1.12129,-1.78354c1.503,-2.42703 3.10674,-4.77806 4.75288,-7.11643c0.25183,-0.35975 0.50365,-0.7195 0.75548,-1.07924c0.48775,-0.6967 0.97815,-1.39339 1.46589,-2.08755c0.42678,-0.60802 0.85091,-1.21605 1.27504,-1.82408c1.02056,-1.47193 2.05967,-2.92359 3.1465,-4.34991c0.14579,-0.19254 0.29159,-0.38255 0.44003,-0.58016c0.45859,-0.60296 0.92248,-1.20845 1.38372,-1.81141c0.23327,-0.30655 0.23327,-0.30655 0.46919,-0.61816c1.89002,-2.47517 3.8092,-4.92247 5.8079,-7.31911c0.35786,-0.43322 0.71306,-0.86897 1.06562,-1.30472c1.36516,-1.6822 2.77009,-3.32387 4.22802,-4.93261c0.81645,-0.9019 1.61168,-1.81141 2.39367,-2.73611c0.95694,-1.12484 1.95099,-2.20409 2.97155,-3.27574c0.4904,-0.51682 0.9755,-1.04124 1.45264,-1.57073c1.11599,-1.22112 2.26378,-2.41437 3.41688,-3.60508c0.334,-0.34708 0.66535,-0.69923 0.99405,-1.05138c2.42813,-2.58411 5.01266,-5.01874 7.58129,-7.47111c0.68126,-0.64856 1.36251,-1.29965 2.04111,-1.95075c0.53016,-0.50669 1.06032,-1.01591 1.59313,-1.5226c0.37111,-0.35468 0.74222,-0.70936 1.11068,-1.06404c1.18226,-1.12484 2.37777,-2.21929 3.6475,-3.25547c0.77668,-0.64096 1.51626,-1.31992 2.26378,-1.99382c1.336,-1.19578 2.70646,-2.32823 4.13789,-3.42267c0.68921,-0.53962 1.34926,-1.10204 2.00931,-1.6746c1.37046,-1.19325 2.79924,-2.30797 4.24128,-3.42014c0.32605,-0.25588 0.65209,-0.51429 0.97815,-0.77016c2.26378,-1.77847 4.57263,-3.48601 6.92919,-5.15555c0.61234,-0.43575 1.22467,-0.87657 1.83435,-1.31992c4.58853,-3.32134 9.3043,-6.4552 14.1155,-9.47506c0.26243,-0.16721 0.26243,-0.16721 0.53281,-0.33695c5.52161,-3.47588 11.17311,-6.74148 16.96246,-9.79681c0.23327,-0.12414 0.46654,-0.24828 0.70511,-0.37495c6.6217,-3.51135 13.33352,-6.78455 20.2362,-9.75881c0.27038,-0.11907 0.54076,-0.23561 0.8191,-0.35722c20.72924,-8.98611 42.71497,-15.39824 95.75214,-22.88708c0.20411,-0.0152 0.40822,-0.0304 0.62029,-0.0456c6.56868,-0.47375 13.14001,-0.57763 19.72459,-0.57256zM396.81079,371.01172c-1.47384,2.04195 -2.02521,4.57032 -1.56397,6.99483c0.65209,2.65758 1.98279,4.89714 4.38177,6.44c2.17366,1.12232 3.9762,1.55806 6.44144,1.5606c0.21736,0 0.43738,0.00253 0.6627,0.00253c0.71836,0.00507 1.43938,0.0076 2.1604,0.0076c0.501,0.00253 1.00465,0.00253 1.50831,0.00507c1.05237,0.00253 2.10739,0.00253 3.1624,0.00507c1.34396,0 2.69056,0.0076 4.03717,0.0152c1.03911,0.00253 2.07823,0.00507 3.11734,0.00507c0.4957,0 0.9914,0.00253 1.4871,0.0076c3.88342,0.0228 7.295,-0.19254 10.30365,-2.84759c1.94834,-2.02169 3.08023,-4.51459 2.98745,-7.30137c-0.32075,-2.24969 -1.09213,-4.24858 -2.73297,-5.90038c-0.15375,-0.15707 -0.30484,-0.31161 -0.46124,-0.47375c-2.99275,-2.76905 -6.4653,-2.75638 -10.37523,-2.73611c-0.53281,0 -1.06827,0 -1.60373,-0.00253c-1.11599,-0.00253 -2.23197,0 -3.34796,0.0076c-1.42083,0.00507 -2.84431,0.00253 -4.26513,-0.00507c-1.10273,-0.00507 -2.20546,-0.00253 -3.30819,0c-0.52486,0 -1.04972,0 -1.57193,-0.00253c-4.60444,-0.02027 -7.94975,0.65616 -11.01937,4.21818zM376.87944,399.69532c-1.59048,2.08249 -2.22137,4.49179 -1.90327,7.04549c0.49305,2.59424 2.03581,4.98328 4.24128,6.58694c1.503,0.77776 3.07493,1.54793 4.80855,1.553c0.3393,0.00253 0.3393,0.00253 0.68391,0.00507c0.36846,0 0.36846,0 0.74753,0c0.39497,0.00253 0.39497,0.00253 0.79524,0.00253c0.88537,0.00507 1.76808,0.00507 2.65345,0.0076c0.63089,0.00253 1.26443,0.00507 1.89532,0.0076c1.90062,0.00507 3.80125,0.0076 5.70187,0.01266c0.53811,0 1.07357,0 1.61168,0.00253c3.33736,0.00507 6.67471,0.01266 10.01207,0.0152c0.77403,0 1.54807,0 2.31945,0.00253c0.28894,0 0.28894,0 0.58317,0c3.10939,0.00253 6.21877,0.01266 9.32551,0.0228c3.19686,0.01014 6.39108,0.0152 9.58529,0.01773c1.79194,0 3.58388,0.00253 5.37582,0.01266c1.68856,0.0076 3.37712,0.0076 5.06303,0.00507c0.61764,0 1.23792,0.00253 1.85556,0.0076c3.95764,0.02533 7.21282,0.0228 10.22943,-2.75385c2.23197,-2.22183 3.20747,-4.44618 3.1677,-7.52431c-0.25978,-2.72091 -1.54276,-4.84647 -3.61834,-6.66041c-2.26908,-1.76074 -4.68926,-2.2953 -7.55212,-2.28516c-0.25978,0 -0.51956,-0.00253 -0.78729,-0.00253c-0.86416,-0.00507 -1.73097,-0.00253 -2.59778,-0.00253c-0.62029,-0.00253 -1.24322,-0.00507 -1.86616,-0.00507c-1.68591,-0.00507 -3.37447,-0.0076 -5.06303,-0.0076c-1.23262,0 -2.46524,0 -3.69786,-0.00253c-3.31615,-0.00507 -6.6323,-0.00507 -9.94845,-0.00507c-0.18821,0 -0.37641,0 -0.56992,0c-0.18821,0 -0.37641,0 -0.56992,0c-3.05107,0 -6.10214,-0.00507 -9.15321,-0.01266c-3.1359,-0.0076 -6.27444,-0.01014 -9.41033,-0.01014c-1.76013,0 -3.51761,-0.00253 -5.27774,-0.0076c-1.65675,-0.00507 -3.31085,-0.00507 -4.9676,0c-0.60438,0 -1.21142,0 -1.81845,-0.00507c-4.83506,-0.0228 -8.51701,0.24828 -11.85437,3.9775zM214.86794,462.22312c-0.16435,0.114 -0.3287,0.22801 -0.49835,0.34708c-3.56002,2.49291 -7.02461,5.11501 -10.27184,7.97273c-0.53811,0.46869 -1.08418,0.92724 -1.63289,1.38326c-1.08418,0.90444 -2.13919,1.83168 -3.18891,2.77412c-0.18291,0.16467 -0.36581,0.32935 -0.55402,0.49909c-2.04111,1.83928 -4.06897,3.69122 -5.89272,5.73317c-0.501,0.55229 -1.0179,1.08938 -1.54011,1.62647c-1.25383,1.29205 -2.45464,2.60691 -3.61039,3.98003c-0.47449,0.56242 -0.95429,1.12232 -1.43673,1.67967c-5.08688,5.87505 -9.53227,12.24918 -13.52172,18.84625c-0.1617,0.26094 -0.1617,0.26094 -0.3234,0.52949c-11.31891,18.60811 -17.65432,39.55965 -19.55759,61.7931c-0.01856,0.22294 1.54011,-19.02612 -0.05832,0.67643c-1.59843,19.70255 -4.04247,39.99033 34.5187,101.42115c38.56116,61.43082 0.25183,0.29135 0.38172,0.44082c1.70977,1.97355 3.49375,3.87109 5.32545,5.74584c0.37907,0.38762 0.75283,0.7803 1.12659,1.17551c2.18426,2.30797 4.41888,4.57793 6.90268,6.59707c0.61234,0.51175 1.20877,1.03871 1.80254,1.57073c1.6594,1.47953 3.36121,2.87798 5.13725,4.23084c0.29689,0.23054 0.59113,0.46109 0.88802,0.69163c21.88499,16.99937 48.59178,27.74369 96.00661,32.086c1.22467,0 2.44669,0.00253 3.67136,0.00253c2.13389,0.00253 4.27043,0.00253 6.40433,0.00253c3.17566,-0.00507 6.34866,-0.00253 9.52432,0c5.67271,0.00253 11.34807,0.00253 17.02077,0c4.96495,0 9.92989,0 14.89484,0c0.4957,0 0.4957,0 1.002,0c1.34131,0 2.68261,0 4.02126,0c9.34937,0.00253 18.69873,0.00253 28.0481,0c0.26243,0 0.26243,0 0.53281,0c2.85491,0 5.70982,-0.00253 8.56473,-0.00253c11.32156,-0.00507 22.64047,-0.00507 33.96203,0c2.85491,0 5.70717,0.00253 8.56208,0.00253c0.17495,0 0.3499,0 0.53016,0c9.50842,0.00253 19.01683,0.00253 28.52524,0c1.336,0 2.67466,0 4.01331,0c0.33135,0 0.66005,0 0.99935,0c4.95964,-0.00253 9.91929,0 14.87893,0.00253c5.6462,0 11.28975,0 16.9333,-0.00253c3.1518,-0.00253 6.30625,-0.00253 9.45805,0c2.11269,0.00253 4.22537,0 6.33806,-0.00253c1.19816,-0.00253 2.39632,-0.00253 3.59713,0c25.2356,0.0532 50.4606,-5.80664 78.18265,-20.61966c0.40557,-0.23561 0.40557,-0.23561 0.8191,-0.47629c3.35856,-1.94822 6.6217,-3.98003 9.76554,-6.22719c0.54076,-0.38508 1.08418,-0.76763 1.62494,-1.14765c3.35856,-2.3637 6.6217,-4.86167 9.69397,-7.56232c0.53811,-0.46869 1.08152,-0.92724 1.63289,-1.38326c1.08152,-0.90444 2.13919,-1.83421 3.18626,-2.77412c0.18291,-0.16467 0.36581,-0.32935 0.55667,-0.49909c2.03581,-1.83674 4.05572,-3.68109 5.87152,-5.71797c0.54076,-0.59029 1.09478,-1.16031 1.6541,-1.73287c1.54807,-1.58593 3.01131,-3.2124 4.42683,-4.90727c0.24388,-0.28628 0.48775,-0.57256 0.73162,-0.85884c6.96365,-8.17034 12.98096,-17.21725 17.80011,-26.69484c0.31545,-0.61816 0.63619,-1.23379 0.95694,-1.84941c8.44809,-16.36348 12.9359,-34.29516 14.44155,-52.42698c0.01856,-0.22294 0.03711,-0.44842 0.05832,-0.67896c1.59843,-19.70255 -1.79194,-39.98526 -10.39643,-62.65701c-0.1723,-0.41295 -0.1723,-0.41295 -0.3499,-0.8335c-6.83376,-16.15827 -16.75835,-30.99409 -29.15083,-43.77275c-0.48245,-0.49909 -0.96224,-0.99818 -1.43673,-1.4998c-2.19221,-2.31556 -4.43213,-4.59312 -6.92124,-6.61481c-0.61499,-0.51175 -1.20877,-1.04124 -1.80519,-1.57073c-1.65675,-1.47953 -3.36121,-2.87798 -5.1346,-4.23084c-0.29689,-0.23054 -0.59378,-0.46109 -0.88802,-0.69163c-7.23668,-5.6217 -15.02207,-10.54671 -23.23425,-14.76235c-0.22002,-0.114 -0.44003,-0.23054 -0.668,-0.34708c-15.92865,-8.25648 -33.30463,-13.44496 -51.23728,-15.80359c-0.19351,-0.02533 -0.38437,-0.05067 -0.58052,-0.07854c-6.75158,-0.8943 -13.47136,-1.07418 -20.2733,-1.06658c-1.21937,0.00253 -2.44138,0 -3.66075,0c-2.13389,-0.00253 -4.26513,-0.00253 -6.39638,-0.00253c-3.173,0 -6.34336,0 -9.51372,-0.00253c-5.99611,-0.00507 -11.98956,-0.00507 -17.98566,-0.00253c-4.63094,0 -9.26189,0 -13.89283,-0.00253c-0.668,0 -1.33335,0 -2.00135,0c-1.00465,0 -2.00931,0 -3.01396,0c-9.33611,-0.00253 -18.67222,-0.00507 -28.00569,-0.00253c-0.1776,0 -0.35255,0 -0.53281,0c-1.95894,0 -3.91788,0 -5.87947,0c-0.17495,0 -0.35255,0 -0.53546,0c-1.07092,0 -1.07092,0 -2.1445,0c-11.3083,0.00253 -22.61661,0 -33.92227,-0.00507c-2.84961,0 -5.69922,-0.00253 -8.54883,-0.00253c-0.17495,0 -0.3499,0 -0.53016,0c-9.49251,-0.00507 -18.98767,-0.00507 -28.48018,-0.00507c-1.336,0 -2.67201,0 -4.01066,0c-0.3287,0.00253 -0.6574,0.00253 -0.9967,0.00253c-4.95434,0 -9.90603,-0.00253 -14.86038,-0.00507c-5.63825,-0.00253 -11.2765,-0.00253 -16.91475,0c-3.14915,0 -6.30095,0 -9.4501,-0.00253c-2.11004,-0.00253 -4.22007,-0.00253 -6.33276,0.00253c-1.19816,0 -2.39632,0 -3.59448,-0.00253c-24.17263,-0.05574 -47.53147,5.35316 -89.60759,27.71328z" id="CompoundPath 1" fill="#65cde3"/><path d="M301.19914,453.57649c0.40557,0 0.81114,0 1.21672,-0.00253c1.10538,0 2.21076,0 3.3188,0c1.20612,0 2.41223,0 3.61834,-0.00253c2.39102,-0.00253 4.77939,-0.00253 7.17041,-0.00253c2.86286,0 5.72838,-0.00253 8.59124,-0.00253c6.92124,-0.00507 13.84247,-0.00507 20.76636,-0.0076c3.27639,0 6.55277,-0.00253 9.82916,-0.00253c11.22613,-0.00253 22.45491,-0.00507 33.68104,-0.0076c0.70246,0 1.40757,0 2.11269,0c0.70511,0 1.41023,0 2.11799,0c1.23792,0 2.4785,0 3.71642,0c0.3552,0 0.71041,0 1.06297,0c11.37988,0 22.75976,-0.00507 34.13963,-0.01014c12.21753,-0.0076 24.43506,-0.01014 36.65259,-0.01014c1.32275,0 2.64815,0 3.9709,0c0.32605,0 0.65209,0 0.98875,0c5.23002,0 10.46005,-0.00253 15.69007,-0.0076c5.26184,-0.00253 10.52632,-0.00507 15.79081,-0.00253c3.11999,0.00253 6.24263,0 9.36262,-0.00253c2.09148,-0.00253 4.18296,-0.00253 6.27709,0c1.18756,0 2.37246,0 3.56002,-0.00253c23.26606,-0.05827 46.01786,5.12515 75.99044,21.88385c0.15375,0.10387 0.30749,0.20521 0.46654,0.31161c3.3135,2.20916 6.50771,4.56019 9.60649,7.03536c0.13519,0.10894 0.27303,0.21788 0.41352,0.32935c4.45069,3.55442 8.90403,7.35964 12.66286,11.59301c0.52221,0.58016 1.06297,1.14512 1.60108,1.71007c6.51036,6.91375 11.91269,14.72435 16.60195,22.84908c0.19351,0.33188 0.19351,0.33188 0.38967,0.67136c4.98085,8.6745 8.6204,17.89368 11.27385,27.44981c0.07157,0.25841 0.14314,0.51429 0.22002,0.7803c2.56332,9.22425 3.79064,18.82345 4.02126,28.35424c0.0053,0.21027 0.0106,0.41802 0.01591,0.63336c0.5116,20.87047 -4.84831,41.45466 -19.10165,67.51614c-0.23592,0.37495 -0.47449,0.7499 -0.71041,1.12484c-4.25983,6.68828 -9.41299,12.85974 -14.9293,18.63598c-0.21736,0.23054 -0.43473,0.46109 -0.6574,0.69923c-2.4785,2.61957 -5.03387,5.23408 -7.86227,7.51418c-0.58848,0.47629 -1.15045,0.97791 -1.72037,1.477c-1.47915,1.27432 -3.03516,2.4397 -4.61239,3.60255c-0.54607,0.40535 -1.08683,0.81577 -1.62494,1.22872c-4.9888,3.79763 -10.35402,6.99736 -15.86238,10.05268c-0.24122,0.13427 -0.48245,0.26855 -0.72897,0.40535c-13.08434,7.2127 -27.74061,11.73489 -42.59568,14.11379c-0.18025,0.0304 -0.35786,0.0608 -0.54342,0.0912c-7.60249,1.24139 -15.30041,1.46686 -22.99303,1.44913c-1.20612,-0.00253 -2.41488,0 -3.62099,0.00253c-2.10739,0.00253 -4.21212,0.00253 -6.31685,0c-3.1306,-0.00253 -6.26384,-0.00253 -9.39443,0c-5.59584,0.00507 -11.19167,0.00507 -16.78751,0.00253c-4.89603,-0.00253 -9.79205,-0.00253 -14.69073,-0.00253c-0.3234,0 -0.64944,0 -0.9861,0c-1.32275,0 -2.64549,0.00253 -3.96824,0.00253c-12.38983,0.00253 -24.77966,0 -37.16949,-0.00507c-10.98756,-0.00253 -21.97777,-0.00253 -32.96533,0c-12.36862,0.00507 -24.73725,0.00507 -37.10322,0.00507c-1.32275,-0.00253 -2.64284,-0.00253 -3.96294,-0.00253c-0.3234,0 -0.64944,0 -0.98345,0c-4.89337,0 -9.7841,0 -14.67747,0.00253c-5.56668,0.00253 -11.13336,0.00253 -16.70003,-0.00253c-3.10674,-0.00253 -6.21612,-0.00253 -9.32551,0c-2.08353,0.00253 -4.16706,0 -6.25058,-0.00253c-1.18226,-0.00253 -2.36451,-0.00253 -3.54942,0c-7.65551,0.01773 -15.30041,-0.28881 -22.85783,-1.54033c-0.29689,-0.0456 -0.29689,-0.0456 -0.59908,-0.09374c-22.49467,-3.62282 -43.47574,-12.7356 -62.60656,-27.59928c-0.13784,-0.10894 -0.27303,-0.21788 -0.41352,-0.32935c-4.45334,-3.56202 -8.91464,-7.35964 -12.67347,-11.60062c-0.51691,-0.58016 -1.05502,-1.14005 -1.59313,-1.70247c-6.50771,-6.91122 -11.91003,-14.72435 -16.5993,-22.84908c-0.12989,-0.22041 -0.25713,-0.44335 -0.38967,-0.67136c-4.98085,-8.6745 -8.6204,-17.89368 -11.27385,-27.44981c-0.07157,-0.25588 -0.14579,-0.51429 -0.22002,-0.7803c-2.56332,-9.22172 -3.80125,-18.82345 -4.02126,-28.35424c-0.0053,-0.21281 -0.01326,-0.42562 -0.01856,-0.64603c-0.5063,-20.86794 4.85096,-41.44452 19.1043,-67.50348c0.23592,-0.37495 0.47184,-0.7499 0.70776,-1.12484c1.58783,-2.49037 3.3294,-4.87434 5.12399,-7.2355c0.20146,-0.26601 0.40292,-0.52949 0.60969,-0.8031c5.09483,-6.58948 10.86297,-13.21188 17.41575,-18.52197c0.64414,-0.52949 1.26443,-1.08431 1.88737,-1.63914c1.52156,-1.32499 3.11999,-2.5309 4.75023,-3.73175c0.54342,-0.40282 1.08418,-0.81324 1.61964,-1.22365c6.77014,-5.15301 14.22949,-9.40413 21.96187,-13.09535c0.26243,-0.12667 0.52751,-0.25334 0.79789,-0.38508c4.14585,-1.98875 8.35531,-3.69375 12.72118,-5.18848c0.30484,-0.10387 0.60969,-0.21027 0.92248,-0.31922c13.12676,-4.47912 27.18394,-7.07843 41.14039,-7.06069zM265.64133,486.77721c-1.43143,1.84941 -1.77338,3.51135 -1.78134,5.78131c-0.00265,0.22294 -0.00265,0.44842 -0.0053,0.67643c-0.0053,0.73977 -0.00795,1.47953 -0.0106,2.21929c0,0.25081 -0.00265,0.50416 -0.00265,0.7651c-0.0053,1.34019 -0.0106,2.68038 -0.01326,4.02057c-0.00265,1.38073 -0.0106,2.75891 -0.02121,4.13964c-0.00795,1.06404 -0.0106,2.13062 -0.0106,3.19467c0,0.50669 -0.0053,1.01591 -0.00795,1.52513c-0.10603,3.67855 -0.10603,3.67855 1.1796,7.08603c0.23857,0.40028 0.23857,0.40028 0.47979,0.80817c1.96954,2.41943 4.25453,3.83563 7.4726,4.25871c2.47585,0.27361 5.17171,-0.69923 7.15715,-2.08755c2.05702,-1.72781 3.27374,-3.9547 3.71112,-6.52614c0.02651,-0.68656 0.04241,-1.36552 0.04241,-2.05208c0,-0.20267 0.00265,-0.40788 0.00265,-0.61563c0.0053,-0.67136 0.00795,-1.34272 0.00795,-2.01408c0.00265,-0.46615 0.00265,-0.93484 0.0053,-1.40353c0.00265,-0.98297 0.0053,-1.96595 0.0053,-2.94892c0,-1.25405 0.00795,-2.50557 0.01591,-3.75962c0.0053,-0.96777 0.0053,-1.93555 0.0053,-2.90585c0.00265,-0.46109 0.00265,-0.92217 0.00795,-1.38326c0.02651,-3.73175 -0.18291,-7.14683 -2.9795,-10.03495c-2.11269,-1.86461 -4.72372,-2.94386 -7.63695,-2.85518c-3.26578,0.42308 -5.54017,1.73794 -7.6237,4.11177zM548.72539,486.52893c-1.58253,2.13569 -2.05967,4.41325 -2.05172,6.99736c0,0.20267 -0.00265,0.40788 -0.00265,0.61563c-0.0053,0.6663 -0.00265,1.33006 -0.00265,1.99635c-0.00265,0.46615 -0.00265,0.93484 -0.0053,1.40099c0,0.97791 0,1.95328 0,2.92865c0.00265,1.24645 -0.00265,2.49037 -0.00795,3.73682c-0.0053,0.96271 -0.0053,1.92795 -0.00265,2.89065c0,0.46109 -0.00265,0.91964 -0.0053,1.37819c-0.01856,3.75455 0.24918,7.03029 2.94769,9.99442c1.8158,1.667 4.42418,2.77412 6.95569,2.78932c3.43544,-0.21281 5.59318,-1.11978 7.9577,-3.55188c1.58518,-1.93301 2.24258,-3.95723 2.22667,-6.38173c0.00265,-0.33695 0.00265,-0.33695 0.0053,-0.67896c0.0053,-0.73216 0.0053,-1.46686 0.00265,-2.19902c0.00265,-0.51429 0.00265,-1.02858 0.0053,-1.54287c0.00265,-1.07418 0,-2.14835 -0.00265,-3.22253c-0.00265,-1.37312 0.00265,-2.74371 0.0106,-4.11684c0.0053,-1.05898 0.0053,-2.12049 0.00265,-3.17947c0,-0.50669 0.00265,-1.01084 0.0053,-1.51753c0.08748,-3.66082 0.08748,-3.66082 -1.19551,-7.05563c-0.15905,-0.26601 -0.3181,-0.53202 -0.47979,-0.80817c-1.91122,-2.34596 -4.11404,-3.73429 -7.20752,-4.25871c-3.54942,-0.27868 -6.92389,1.14005 -9.15586,3.78496zM223.03505,503.05962c-1.77338,2.10529 -2.52091,4.50952 -2.27703,7.18736c0.72632,4.31445 4.27043,7.07843 7.33741,10.02735c0.22002,0.21281 0.22002,0.21281 0.44533,0.42815c0.77403,0.74483 1.54807,1.48966 2.3221,2.23196c0.79524,0.76257 1.58518,1.52766 2.37512,2.29276c0.61499,0.59282 1.23262,1.18565 1.85291,1.77847c0.29159,0.28121 0.58317,0.56242 0.87476,0.84363c2.67731,2.59931 5.20882,4.60579 9.20357,4.64633c2.78864,-0.038 4.84831,-0.92471 6.94244,-2.67785c1.99075,-2.14076 3.25518,-4.44872 3.13855,-7.37484c-0.56462,-4.24351 -3.39302,-6.70601 -6.39903,-9.58653c-0.33135,-0.31668 -0.66005,-0.63336 -0.98875,-0.95004c-0.68921,-0.66123 -1.37841,-1.31992 -2.06762,-1.97861c-0.88006,-0.8411 -1.75483,-1.6822 -2.62959,-2.52837c-0.67861,-0.65363 -1.35986,-1.30472 -2.04111,-1.95835c-0.3234,-0.30908 -0.64679,-0.61816 -0.96754,-0.92977c-2.74888,-2.65758 -5.22207,-4.75273 -9.31755,-4.88701c-3.20217,0.05067 -5.62764,1.23125 -7.80395,3.43534zM306.34169,505.41572c-0.32605,0.30908 -0.65209,0.61816 -0.9755,0.92724c-0.68126,0.64856 -1.35721,1.29712 -2.03581,1.94568c-0.86151,0.8259 -1.72832,1.64927 -2.59513,2.47264c-0.6733,0.63843 -1.34396,1.27685 -2.01196,1.91781c-0.3181,0.30401 -0.63619,0.60802 -0.95694,0.91204c-2.80985,2.66011 -5.19557,5.32782 -5.34666,9.27745c0.08748,3.0832 1.46854,5.35569 3.76148,7.44071c1.89532,1.52513 4.3261,2.19649 6.78339,2.16102c4.37912,-0.43575 6.90798,-3.1288 9.85302,-5.93331c0.3446,-0.32681 0.68921,-0.65363 1.03381,-0.98044c0.71836,-0.68403 1.43673,-1.36806 2.15245,-2.05208c0.91718,-0.87404 1.83435,-1.74047 2.75418,-2.60944c0.71306,-0.6739 1.42348,-1.34779 2.13124,-2.02422c0.33665,-0.32174 0.67595,-0.64349 1.01525,-0.96271c1.79989,-1.69234 3.39567,-3.2124 4.29694,-5.5229c0.11398,-0.28628 0.22797,-0.57509 0.34725,-0.8715c0.53546,-2.64998 0.18025,-5.08461 -1.30949,-7.39258c-1.6753,-2.23449 -3.87282,-3.85843 -6.72507,-4.40312c-5.40498,-0.43069 -8.57268,2.24716 -12.17247,5.6977zM505.53859,503.73352c-1.55072,2.06982 -1.97219,4.37778 -1.73362,6.87828c0.84561,3.67349 3.44074,5.90798 6.11539,8.48195c0.167,0.15961 0.334,0.32174 0.5063,0.48895c0.88272,0.85124 1.76808,1.70247 2.6561,2.55117c0.90923,0.8715 1.81315,1.74807 2.71707,2.62718c0.69981,0.67896 1.40492,1.35539 2.11004,2.02928c0.33665,0.32174 0.668,0.64603 1.002,0.97031c2.58453,2.51824 5.12399,4.64633 9.01536,4.71726c3.08023,0.0076 5.42354,-0.97791 7.60249,-3.03253c1.79459,-1.87728 2.70912,-4.0535 2.74358,-6.60467c-0.27303,-4.52472 -3.54146,-7.32671 -6.69857,-10.3491c-0.3128,-0.29894 -0.62294,-0.59789 -0.93573,-0.89684c-0.64944,-0.62323 -1.29889,-1.24645 -1.95099,-1.86714c-0.82705,-0.79297 -1.65145,-1.58847 -2.47585,-2.38396c-0.64149,-0.61816 -1.28564,-1.23379 -1.92978,-1.84941c-0.30484,-0.29135 -0.60703,-0.58522 -0.91188,-0.8791c-2.74888,-2.66011 -5.52956,-4.86673 -9.59324,-5.00861c-3.46989,0.0912 -6.05177,1.63407 -8.23868,4.12697zM589.12356,505.72986c-0.24388,0.23054 -0.24388,0.23054 -0.49305,0.46615c-0.85886,0.81324 -1.71507,1.629 -2.57127,2.44477c-0.88006,0.83604 -1.76278,1.66953 -2.64549,2.49797c-0.68656,0.64603 -1.36781,1.29459 -2.04907,1.94568c-0.3234,0.30908 -0.64679,0.61563 -0.9755,0.91964c-2.41223,2.25983 -4.72902,4.697 -4.82445,8.10954c-0.02916,2.82985 0.51956,5.01874 2.46524,7.24564c1.99075,1.91781 4.52491,3.00719 7.33741,3.10346c4.43744,-0.06333 7.33741,-2.78932 10.27449,-5.61663c0.33665,-0.32174 0.6733,-0.64349 1.0126,-0.96271c0.70246,-0.67136 1.40227,-1.34272 2.10208,-2.01662c0.89332,-0.85884 1.78929,-1.71261 2.68791,-2.56384c0.69451,-0.66123 1.38902,-1.32499 2.08088,-1.99128c0.3287,-0.31415 0.66005,-0.62829 0.9914,-0.94244c3.02986,-2.88052 5.25388,-5.51783 5.32015,-9.78414c-0.18291,-2.53597 -1.46324,-4.96807 -3.41158,-6.69588c-6.79664,-4.7806 -12.2732,-0.93484 -17.30176,3.84069zM204.98841,544.71948c-1.74157,2.28769 -1.99605,4.6742 -1.78399,7.44071c0.54607,2.56638 2.13389,4.68433 4.35791,6.19172c1.85556,1.16285 3.85161,1.5226 6.03322,1.51246c0.23062,0 0.46124,0.00253 0.69981,0.00507c0.75548,0.00253 1.51096,0.00253 2.26908,0.00253c0.53016,0 1.06032,0 1.59048,0.00253c1.10803,0.00253 2.21872,0.00253 3.32675,0c1.41553,-0.00253 2.83105,0.00253 4.24658,0.01014c1.09478,0.00253 2.18956,0.00253 3.28434,0.00253c0.51956,0 1.04176,0 1.56397,0.00507c3.76148,0.01773 6.70387,-0.17734 9.67806,-2.61451c2.10208,-1.98622 2.9954,-4.17511 3.10939,-6.96949c-0.06362,-2.59171 -0.93308,-4.697 -2.8125,-6.57174c-2.44669,-2.16356 -4.68396,-3.01226 -8.02927,-3.01733c-0.22002,0 -0.44003,-0.00253 -0.668,-0.00253c-0.72897,-0.00507 -1.45794,-0.0076 -2.18691,-0.0076c-0.50895,-0.00253 -1.0179,-0.00253 -1.52686,-0.00507c-1.06562,-0.00253 -2.13389,-0.00507 -3.19952,-0.00507c-1.36251,0 -2.72237,-0.0076 -4.08488,-0.0152c-1.05237,-0.00507 -2.10208,-0.00507 -3.15445,-0.00507c-0.501,-0.00253 -1.002,-0.00253 -1.503,-0.0076c-4.6654,-0.02787 -8.04517,0.47882 -11.21023,4.04844zM306.10577,544.59282c-1.52421,1.98875 -2.29294,4.61086 -1.90592,7.06069c0.71041,2.93119 2.20811,5.08968 4.77144,6.84028c1.91122,0.99311 3.54412,1.30472 5.70982,1.31232c0.22797,0.00253 0.45594,0.00253 0.69186,0.00507c0.75548,0.00507 1.50831,0.0076 2.26378,0.01014c0.25978,0 0.51691,0.00253 0.78464,0.00253c1.36781,0.00507 2.73827,0.01014 4.10874,0.01266c1.41023,0.00253 2.8178,0.01014 4.22802,0.02027c1.08683,0.0076 2.17631,0.01014 3.26313,0.01014c0.51956,0 1.03911,0.00507 1.55867,0.0076c3.91523,0.03547 7.02461,-0.18747 9.99616,-2.90079c1.91122,-1.96088 2.95034,-4.40565 2.91588,-7.09363c-0.23592,-2.56638 -1.41818,-5.10995 -3.44604,-6.84028c-3.30554,-2.32063 -6.55012,-2.39663 -10.49451,-2.38903c-0.50365,-0.00253 -1.00995,-0.00253 -1.51626,-0.00507c-1.05767,-0.00253 -2.11269,0 -3.17035,0.00253c-1.34661,0.00253 -2.69056,-0.00253 -4.03717,-0.01014c-1.04442,-0.00507 -2.08883,-0.00507 -3.1306,-0.00253c-0.4957,0 -0.99405,-0.00253 -1.48975,-0.00507c-4.52756,-0.02533 -7.99746,0.53455 -11.10154,3.9623zM488.4807,543.95946c-1.76013,2.07995 -2.60309,4.63873 -2.38572,7.29377c0.44003,2.75638 1.80254,4.99848 4.03187,6.77442c2.03316,1.37819 3.94439,1.77087 6.39903,1.77847c0.22797,0.00253 0.45594,0.00253 0.69186,0.00507c0.75548,0.00507 1.50831,0.0076 2.26378,0.01014c0.25978,0 0.51691,0.00253 0.78464,0.00253c1.36781,0.00507 2.73827,0.01014 4.10874,0.01266c1.41023,0.00253 2.8178,0.01014 4.22802,0.02027c1.08683,0.0076 2.17631,0.01014 3.26313,0.01014c0.51956,0 1.03911,0.00507 1.55867,0.0076c4.09814,0.03547 7.15715,-0.30655 10.23473,-3.106c1.89002,-1.89755 2.78864,-4.30685 2.74888,-6.90869c-0.29954,-3.06799 -1.68856,-5.30502 -4.09814,-7.27857c-3.0007,-2.02928 -6.19757,-1.96848 -9.71783,-1.94568c-0.5063,0 -1.0126,-0.00253 -1.51891,-0.00253c-1.05502,0 -2.11269,0.00253 -3.1677,0.0076c-1.34661,0.0076 -2.69321,0.0076 -4.03982,0.00507c-1.04442,-0.00253 -2.08618,0 -3.1306,0.00253c-0.4957,0.00253 -0.99405,0.00253 -1.48975,0c-4.10609,-0.00507 -7.74828,0.30908 -10.76489,3.3112zM589.31177,544.29134c-1.88737,2.3713 -2.21342,4.99087 -2.00666,7.86886c0.53281,2.56384 2.13919,4.68686 4.35791,6.19172c1.85556,1.16285 3.85161,1.5226 6.03322,1.51246c0.23062,0 0.46124,0.00253 0.69981,0.00507c0.75548,0.00253 1.51096,0.00253 2.26908,0.00253c0.53016,0 1.06032,0 1.59048,0.00253c1.10803,0.00253 2.21872,0.00253 3.32675,0c1.41553,-0.00253 2.83105,0.00253 4.24658,0.01014c1.09478,0.00253 2.18956,0.00253 3.28434,0.00253c0.51956,0 1.04176,0 1.56397,0.00507c3.91523,0.02027 7.02992,-0.21027 10.00411,-2.91852c1.84761,-1.86208 2.69586,-4.03324 2.78334,-6.58694c-0.10868,-3.1364 -1.43938,-5.42409 -3.79329,-7.53698c-2.12329,-1.70247 -4.33406,-2.12809 -7.04847,-2.13062c-0.22002,0 -0.44003,-0.00253 -0.668,-0.00253c-0.72897,-0.00507 -1.45794,-0.0076 -2.18691,-0.0076c-0.50895,-0.00253 -1.0179,-0.00253 -1.52686,-0.00507c-1.06562,-0.00253 -2.13389,-0.00507 -3.19952,-0.00507c-1.36251,0 -2.72237,-0.0076 -4.08488,-0.0152c-1.05237,-0.00507 -2.10208,-0.00507 -3.15445,-0.00507c-0.501,-0.00253 -1.002,-0.00253 -1.503,-0.0076c-4.42683,-0.02533 -7.77744,0.43069 -10.98756,3.62028zM238.03857,570.90258c-0.13784,0.12161 -0.27568,0.24575 -0.41882,0.36988c-1.4818,1.32245 -2.92913,2.68038 -4.36852,4.0459c-0.13784,0.12921 -0.27568,0.26094 -0.41617,0.39521c-0.72897,0.69163 -1.45794,1.38326 -2.18426,2.07488c-0.74222,0.70683 -1.4871,1.41112 -2.23197,2.11289c-0.58317,0.54976 -1.16105,1.10204 -1.74157,1.65433c-0.27303,0.26094 -0.54607,0.51935 -0.82175,0.77776c-2.9742,2.79185 -5.09748,5.49756 -5.1558,9.60173c0.22267,2.60184 1.37311,4.85153 3.36121,6.63254c2.73032,2.05208 5.44209,2.57651 8.83246,2.23449c4.82711,-1.09698 8.75294,-6.25506 12.17247,-9.50546c0.67595,-0.64096 1.35456,-1.27939 2.03581,-1.91781c0.8297,-0.77776 1.6541,-1.55806 2.4785,-2.34343c0.31015,-0.29641 0.62294,-0.58776 0.93573,-0.88164c2.58453,-2.41183 4.68661,-4.9022 4.74228,-8.51742c0.00795,-2.91092 -1.00465,-5.08968 -3.1465,-7.18483c-4.33406,-3.63295 -9.98821,-3.17947 -14.07309,0.45095zM517.98939,573.69189c-0.33665,0.32428 -0.67595,0.64603 -1.0126,0.96777c-0.70511,0.6739 -1.40757,1.34779 -2.10739,2.02169c-0.89597,0.8639 -1.79459,1.72274 -2.69321,2.57904c-0.69716,0.66376 -1.39167,1.33006 -2.08618,1.99635c-0.33135,0.31668 -0.6627,0.63336 -0.99405,0.95004c-2.76478,2.63985 -4.98085,5.02888 -5.14255,8.93797c0.08748,2.69558 1.06827,4.9402 3.03251,6.87069c1.95099,1.73287 4.4666,2.82225 7.15715,2.78678c5.02591,-0.39521 8.01867,-3.82296 11.38783,-7.03029c0.14314,-0.13934 0.28894,-0.27614 0.43738,-0.41802c0.76608,-0.7271 1.53216,-1.45673 2.29559,-2.18636c0.78199,-0.74736 1.56927,-1.4922 2.35656,-2.23703c0.60969,-0.57763 1.21937,-1.16031 1.8264,-1.74047c0.28894,-0.27614 0.58052,-0.54976 0.86946,-0.82337c2.68526,-2.53597 4.66806,-4.87687 4.78204,-8.61876c-0.09543,-2.84252 -1.1584,-4.98581 -3.20747,-7.04803c-2.02521,-1.76328 -4.26778,-2.3865 -6.94774,-2.65758c-4.34466,0.42308 -7.01931,2.81718 -9.95375,5.64957zM577.64825,571.67021c-1.9987,2.4245 -2.29559,5.12515 -2.00666,8.10447c0.78729,3.296 3.6581,5.61157 6.05707,7.91953c0.24653,0.23814 0.24653,0.23814 0.49835,0.47882c0.86681,0.83857 1.73892,1.6746 2.60839,2.51064c0.89332,0.8563 1.78134,1.71514 2.66935,2.57904c0.68921,0.6663 1.38106,1.33259 2.07558,1.99635c0.3287,0.31415 0.65475,0.63082 0.9808,0.95004c2.57922,2.51317 5.1452,4.59059 9.01801,4.65646c2.84961,-0.03547 5.09483,-1.00831 7.15981,-2.86785c2.19486,-2.22183 2.96359,-4.45125 2.93708,-7.46605c-0.38437,-4.47912 -4.38972,-7.57245 -7.49381,-10.56191c-0.13519,-0.12921 -0.27038,-0.25841 -0.40822,-0.39268c-0.71041,-0.68403 -1.42348,-1.36806 -2.13389,-2.05208c-0.72897,-0.6967 -1.45264,-1.39846 -2.17631,-2.10022c-0.56462,-0.54469 -1.13189,-1.08938 -1.69916,-1.63407c-0.26773,-0.25588 -0.53546,-0.51429 -0.80054,-0.7727c-2.02521,-1.96848 -4.26513,-4.0383 -7.18101,-4.6286c-0.25183,-0.0532 -0.501,-0.10894 -0.76078,-0.16467c-3.68726,-0.51175 -6.83376,0.93737 -9.34407,3.44547zM294.97242,571.351c-2.05967,2.4245 -2.6508,4.84647 -2.43608,7.917c0.59908,3.56708 3.50701,5.99918 6.06237,8.42875c0.33135,0.31668 0.6627,0.63336 0.99405,0.95257c0.68921,0.65869 1.38106,1.31992 2.07292,1.97608c0.88272,0.8411 1.76278,1.68474 2.64284,2.52837c0.68126,0.65616 1.36516,1.30726 2.04907,1.95835c0.3234,0.31161 0.64944,0.62069 0.97284,0.93231c2.74888,2.63731 5.24063,4.71726 9.31225,4.86927c2.80985,-0.07854 5.47125,-1.22872 7.43019,-3.1592c1.8211,-2.09769 2.83636,-4.51459 2.60043,-7.2507c-0.68126,-4.45885 -4.16971,-7.21016 -7.32946,-10.25789c-0.22002,-0.21027 -0.22002,-0.21027 -0.44268,-0.42815c-0.77138,-0.74483 -1.54541,-1.48966 -2.31945,-2.23196c-0.63619,-0.61056 -1.26708,-1.22112 -1.89797,-1.83421c-0.76873,-0.74736 -1.54276,-1.4922 -2.3168,-2.23703c-0.29424,-0.27868 -0.58317,-0.55989 -0.87211,-0.84363c-2.58188,-2.51824 -5.18496,-4.41325 -9.00211,-4.57793c-2.88672,0.11907 -5.54812,1.24645 -7.52032,3.258zM265.76327,583.06815c-1.27238,1.99382 -1.89532,3.65575 -1.90327,5.98145c-0.00265,0.22294 -0.00265,0.44588 -0.0053,0.67643c-0.0053,0.73977 -0.00795,1.477 -0.0106,2.21676c0,0.25334 -0.00265,0.50669 -0.00265,0.76763c-0.0053,1.34019 -0.0106,2.68038 -0.01326,4.02057c-0.00265,1.38073 -0.0106,2.75891 -0.02121,4.13964c-0.00795,1.06404 -0.0106,2.12809 -0.0106,3.19213c0,0.50922 -0.0053,1.01844 -0.00795,1.52513c-0.03181,3.48094 0.06627,6.35387 2.50765,9.14825c2.004,1.93048 4.59648,3.04266 7.43549,3.11866c2.79659,-0.03547 5.1452,-1.00831 7.14125,-2.86532c2.13919,-2.23956 2.95034,-4.64886 2.96359,-7.64085c0,-0.20521 0.00265,-0.41042 0.0053,-0.62069c0.0053,-0.67643 0.00795,-1.35286 0.0106,-2.02928c0,-0.23308 0,-0.46615 0.00265,-0.70429c0.0053,-1.23125 0.00795,-2.4625 0.0106,-3.69375c0.00265,-1.26419 0.01326,-2.52584 0.02386,-3.79002c0.00795,-0.97791 0.00795,-1.95581 0.0106,-2.93372c0,-0.46615 0.00265,-0.93231 0.00795,-1.39846c0.03446,-3.51894 -0.07157,-6.91882 -2.77009,-9.61693c-2.14184,-2.06222 -4.24128,-3.09079 -7.2897,-3.13387c-3.31085,-0.01014 -5.93514,1.19831 -8.08494,3.64055zM549.06735,582.87814c-1.87147,2.07995 -2.35921,4.40565 -2.36186,7.0835c-0.00265,0.20774 -0.00265,0.41295 -0.0053,0.62576c-0.00265,0.67896 -0.0053,1.36046 -0.0053,2.03942c-0.00265,0.47629 -0.0053,0.95004 -0.0053,1.42633c-0.00265,0.99564 -0.0053,1.99128 -0.0053,2.98693c-0.00265,1.26925 -0.00795,2.54104 -0.01591,3.81029c-0.0053,0.98044 -0.0053,1.96341 -0.00795,2.94386c0,0.46869 -0.00265,0.93737 -0.0053,1.40606c-0.02651,3.69375 0.21471,6.93909 2.9795,9.79934c2.21076,1.94822 4.74493,2.90332 7.75888,2.83998c2.69586,-0.22547 4.84036,-1.43392 6.84966,-3.10346c0.52751,-0.64096 0.52751,-0.64096 0.97815,-1.34526c0.15375,-0.22801 0.30749,-0.45855 0.46654,-0.69416c0.86946,-1.58086 1.02056,-3.06546 1.02056,-4.81354c0.0053,-0.33441 0.0053,-0.33441 0.00795,-0.6739c0.0053,-0.73216 0.00795,-1.46433 0.0106,-2.19902c0.00265,-0.51175 0.0053,-1.02351 0.00795,-1.5378c0.00265,-1.07418 0.0053,-2.14835 0.0053,-3.22c0.00265,-1.37059 0.01326,-2.73865 0.02386,-4.10924c0.00795,-1.05898 0.0106,-2.11796 0.0106,-3.17693c0.00265,-0.50416 0.0053,-1.00831 0.0106,-1.515c0.03711,-3.82549 -0.27303,-6.70348 -3.17566,-9.5992c-4.6601,-3.74949 -10.53427,-2.98186 -14.54228,1.02604zM357.12834,631.19082c-1.62229,1.90261 -2.43873,4.32458 -2.36451,6.76428c0.41087,3.73682 2.76478,6.13599 5.63295,8.44902c0.20676,0.16974 0.41352,0.33695 0.62824,0.51175c8.57003,6.74655 18.47607,11.99077 29.06071,15.19556c0.36581,0.11147 0.36581,0.11147 0.73957,0.22547c19.90484,5.99158 41.45849,4.57286 60.22879,-4.27898c0.37111,-0.16974 0.74222,-0.34202 1.11334,-0.51175c1.05237,-0.48642 2.09148,-0.99564 3.12794,-1.515c0.25448,-0.12667 0.25448,-0.12667 0.5116,-0.25588c5.40763,-2.73611 10.38053,-6.23733 14.99822,-10.06028c0.36316,-0.29641 0.72897,-0.58776 1.09478,-0.8791c2.26113,-1.82914 3.57063,-3.86603 3.88077,-6.72375c0.10868,-3.13893 -1.13454,-5.58877 -3.25518,-7.92206c-0.67065,-0.50416 -0.67065,-0.50416 -1.40757,-0.93484c-0.24122,-0.14694 -0.47979,-0.29388 -0.72632,-0.44588c-2.28764,-1.15018 -4.93314,-1.23632 -7.43549,-0.7347c-2.10208,0.66123 -3.57858,1.86714 -5.21677,3.24027c-10.01737,8.34008 -22.71204,13.48549 -35.84409,15.08916c-0.1776,0.0228 -0.35255,0.04814 -0.53281,0.07094c-16.29446,2.01408 -33.23836,-3.84576 -46.03377,-13.25748c-0.92778,-0.70176 -1.837,-1.41873 -2.73032,-2.16102c-2.82575,-2.3409 -5.05242,-3.28334 -8.798,-3.21747c-2.65875,0.18747 -4.84831,1.55047 -6.67206,3.35174z" id="CompoundPath 1" fill="#fef7f5"/><path d="M647.77778,231.30018c0.1776,0 0.3552,0 0.53546,0.00253c4.86156,0.02533 9.16116,1.06404 13.48196,3.16426c0.1564,0.076 0.31545,0.14947 0.47979,0.22801c6.95834,3.35427 12.04788,9.5156 14.54758,16.50029c2.46524,7.45338 1.8264,15.47931 -1.8211,22.464c-1.11334,2.04195 -2.40958,3.86096 -3.92848,5.64957c-0.12459,0.15201 -0.24653,0.30401 -0.37111,0.46109c-0.89332,1.08938 -1.96424,1.95835 -3.07493,2.83238c-0.25448,0.20014 -0.5063,0.40028 -0.76343,0.60549c-2.26113,1.74807 -5.77079,4.46139 -8.77944,4.46139c0,16.13547 0,32.27094 0,48.89537c-0.17495,0 -0.35255,0 -0.53016,0c-0.41617,-0.46615 -0.79789,-0.93484 -1.17695,-1.42379c-0.24122,-0.30655 -0.47979,-0.61056 -0.72101,-0.91457c-0.12459,-0.15707 -0.24918,-0.31668 -0.37641,-0.47882c-1.76808,-2.23449 -3.61039,-4.40312 -5.51366,-6.53374c-0.65209,-0.73216 -1.28829,-1.477 -1.92183,-2.22436c-0.94633,-1.11218 -1.93508,-2.17622 -2.94769,-3.2352c-0.63089,-0.67896 -1.22732,-1.37819 -1.82375,-2.08502c-0.80849,-0.95511 -1.64085,-1.83674 -2.56597,-2.69051c-0.66535,-0.63589 -1.27504,-1.31739 -1.88737,-1.99889c-0.39762,-0.45602 -0.39762,-0.45602 -0.835,-0.79803c-0.47979,-0.53202 -0.47714,-0.8031 -0.47449,-1.4998c0,-0.22041 0,-0.44082 -0.00265,-0.66883c0.00265,-0.24068 0.0053,-0.48135 0.00795,-0.73216c0,-0.38002 0,-0.38002 0,-0.77016c0.00265,-0.84363 0.00795,-1.68727 0.01326,-2.52837c0.00265,-0.58522 0.00265,-1.16792 0.00265,-1.75314c0.0053,-1.5378 0.01326,-3.07559 0.02121,-4.61339c0.00795,-1.57073 0.0106,-3.13893 0.01591,-4.70713c0.00795,-3.08066 0.02121,-6.15879 0.03711,-9.23945c-0.19616,-0.03294 -0.39497,-0.06587 -0.60173,-0.10134c-0.99405,-0.21027 -1.85821,-0.63336 -2.75948,-1.06911c-0.19086,-0.09374 -0.37907,-0.18494 -0.57257,-0.27868c-1.52951,-0.75496 -2.93178,-1.5834 -4.28369,-2.60438c-0.13784,-0.10387 -0.27833,-0.20774 -0.42413,-0.31668c-3.62629,-2.73105 -6.20287,-5.91304 -8.32351,-9.81707c-0.12459,-0.22801 -0.24918,-0.45602 -0.37641,-0.69163c-3.27639,-6.41467 -3.83835,-14.30886 -1.52156,-21.09341c2.94503,-8.17794 8.56738,-14.19233 16.70268,-17.99248c3.95499,-1.74554 8.20687,-2.4245 12.53298,-2.40423z" id="Path 1" fill="#f26835"/><path d="M196.84251,234.46698c0.15905,0.076 0.3181,0.14947 0.47979,0.22801c7.06173,3.40241 12.19632,9.71574 14.69603,16.80937c2.3433,7.89926 1.51361,16.01387 -2.57392,23.2443c-0.96224,1.63407 -2.08618,3.106 -3.3241,4.56019c-0.12194,0.15201 -0.24388,0.30401 -0.36846,0.46109c-0.89332,1.08938 -1.96424,1.95835 -3.07758,2.83238c-0.25183,0.20014 -0.50365,0.40028 -0.76343,0.60549c-2.26113,1.74807 -5.76814,4.46139 -8.77944,4.46139c0.00795,0.48389 0.00795,0.48389 0.01591,0.97537c0.04771,3.03759 0.08483,6.07518 0.10868,9.11278c0.0106,1.56313 0.02916,3.12373 0.05566,4.68433c0.02651,1.50993 0.03976,3.01733 0.04506,4.52472c0.0053,0.57509 0.01326,1.15018 0.02651,1.72274c0.09808,4.50446 0.09808,4.50446 -0.76608,5.91304c-0.59378,0.57002 -1.17695,0.99564 -1.87147,1.44153c-0.32075,0.32428 -0.63089,0.65616 -0.92778,0.99818c-0.68391,0.76003 -1.38106,1.50739 -2.08883,2.24716c-1.04442,1.10711 -2.03051,2.25223 -3.01396,3.41254c-0.58317,0.6739 -1.18756,1.32499 -1.80519,1.97102c-0.94103,0.98804 -1.8264,2.00395 -2.69056,3.05279c-0.60969,0.7347 -1.22997,1.46179 -1.85026,2.18889c-2.80454,3.2428 -2.80454,3.2428 -5.38377,6.65028c-0.17495,0 -0.3499,0 -0.53016,0c0,-16.13547 0,-32.27094 0,-48.89537c-0.43738,-0.0836 -0.87476,-0.16721 -1.3254,-0.25334c-0.69186,-0.29135 -1.36516,-0.59029 -2.03846,-0.9171c-0.18821,-0.09374 -0.37641,-0.18494 -0.57257,-0.27868c-1.52686,-0.75496 -2.92913,-1.5834 -4.28104,-2.60438c-0.14049,-0.10387 -0.28098,-0.20774 -0.42413,-0.31668c-3.62629,-2.73105 -6.20287,-5.91304 -8.32351,-9.81707c-0.12459,-0.22801 -0.24918,-0.45602 -0.37907,-0.69163c-3.38242,-6.62494 -3.73233,-14.60781 -1.39697,-21.59503c2.88937,-7.96766 8.68137,-13.75911 16.50387,-17.42499c8.42424,-3.66589 18.43365,-3.28587 26.62462,0.6967z" id="Path 1" fill="#f26835"/></g></g></g></g></g></g></g></g></svg>